<?xml version="1.0" encoding="UTF-8"?>
<!DOCTYPE svg PUBLIC "-//W3C//DTD SVG 1.1//EN" "http://www.w3.org/Graphics/SVG/1.1/DTD/svg11.dtd">
<svg xmlns="http://www.w3.org/2000/svg" version="1.1" width="500px" height="459px" style="shape-rendering:geometricPrecision; text-rendering:geometricPrecision; image-rendering:optimizeQuality; fill-rule:evenodd; clip-rule:evenodd" xmlns:xlink="http://www.w3.org/1999/xlink">
<g><path style="opacity:0.974" fill="#a90000" d="M 325.5,16.5 C 330.683,16.091 334.016,18.2577 335.5,23C 331.059,46.9811 326.725,70.9811 322.5,95C 326.61,110.442 324.276,124.775 315.5,138C 269.5,138.667 223.5,138.667 177.5,138C 168.405,123.666 166.405,108.332 171.5,92C 167.66,69.4578 163.66,46.9578 159.5,24.5C 161.179,20.3056 164.346,18.3056 169,18.5C 170.605,19.1007 171.938,20.1007 173,21.5C 176.022,39.3094 179.355,56.9761 183,74.5C 200.18,55.9168 221.513,46.9168 247,47.5C 273.31,47.1441 294.976,56.8108 312,76.5C 315.333,57.8333 318.667,39.1667 322,20.5C 322.69,18.6498 323.856,17.3164 325.5,16.5 Z M 190.5,98.5 C 227.669,97.1696 265.002,97.1696 302.5,98.5C 297.376,105.914 292.376,113.414 287.5,121C 276.833,121.667 266.167,121.667 255.5,121C 253.031,118.559 251.198,115.726 250,112.5C 248,111.167 246,111.167 244,112.5C 242.561,115.603 240.727,118.436 238.5,121C 227.833,121.667 217.167,121.667 206.5,121C 201.692,113.041 196.358,105.541 190.5,98.5 Z"/></g>
<g><path style="opacity:0.997" fill="#a80000" d="M 19.5,149.5 C 84.1675,149.333 148.834,149.5 213.5,150C 215.815,151.109 217.315,152.943 218,155.5C 222.135,170.902 226.468,186.236 231,201.5C 231.5,202 232,202.5 232.5,203C 242.833,203.667 253.167,203.667 263.5,203C 268.681,187.453 273.181,171.62 277,155.5C 277.398,152.768 278.898,150.935 281.5,150C 348.5,149.333 415.5,149.333 482.5,150C 483.451,150.718 483.617,151.551 483,152.5C 433.32,201.347 383.82,250.347 334.5,299.5C 385.691,347.602 436.691,395.936 487.5,444.5C 423.836,445.667 360.169,445.833 296.5,445C 294,443.833 292.167,442 291,439.5C 282.717,423.094 273.551,407.261 263.5,392C 256.167,391.333 248.833,391.333 241.5,392C 231.667,408.5 221.833,425 212,441.5C 209.711,444.062 206.877,445.729 203.5,446.5C 140.205,445.837 76.8713,445.17 13.5,444.5C 64.0476,394.118 115.381,344.618 167.5,296C 117.5,248 67.5,200 17.5,152C 18.3805,151.292 19.0472,150.458 19.5,149.5 Z"/></g>
<g><path style="opacity:0.012" fill="#000000" d="M 474.5,409.5 C 474.897,408.475 475.563,408.308 476.5,409C 475.906,409.464 475.239,409.631 474.5,409.5 Z"/></g>
</svg>
